<svg id="Layer_1" data-name="Layer 1" xmlns="http://www.w3.org/2000/svg" viewBox="0 0 140 140"><defs><style>.cls-1,.cls-3{fill:none;}.cls-2{fill:#1a2b68;}.cls-3{stroke:#1a2b68;stroke-linecap:round;stroke-miterlimit:10;stroke-width:2.5px;}.cls-4{fill:#3b3b3b;}</style></defs><title>Tweaked_Do&amp;apos;s_and_Don&amp;apos;ts_icons</title><rect class="cls-1" x="47.28" y="46.69" width="49.29" height="42.33"/><path class="cls-2" d="M72,50.6,57.75,60.48H47.46a.35.35,0,0,0-.35.35V74.58a.36.36,0,0,0,.35.36H57.75L72,85.17a.36.36,0,0,0,.36-.35V51A.36.36,0,0,0,72,50.6Z"/><path class="cls-3" d="M81.67,50.51c7.4,0,13.41,7.84,13.41,17.51s-6,17.52-13.41,17.52"/><path class="cls-3" d="M80.13,55.76c5.19,0,9.39,5.49,9.39,12.26s-4.2,12.27-9.39,12.27"/><path class="cls-3" d="M77.28,59.44c3.63,0,6.58,3.84,6.58,8.58s-3,8.59-6.58,8.59"/><path class="cls-4" d="M4.54,19.13a4.31,4.31,0,0,0-4.3,4.3V117a4.3,4.3,0,0,0,4.3,4.29H135.46a4.3,4.3,0,0,0,4.3-4.29V23.43a4.31,4.31,0,0,0-4.3-4.3Zm125.59,86.49H9.87V28.47H130.13Z"/><path class="cls-4" d="M89.81,123.26H50.19c-.27,0-.55.25-.8.7l-5.34,9.4c-1.17,2.07-1.27,6.31-.1,6.31h52.1c1.17,0,1.07-4.24-.1-6.31L90.61,124C90.36,123.51,90.08,123.26,89.81,123.26Z"/></svg>