<svg id="Layer_1" data-name="Layer 1" xmlns="http://www.w3.org/2000/svg" viewBox="0 0 140 140"><defs><style>.cls-1{fill:none;stroke:#1a2b68;stroke-linecap:round;stroke-width:4px;}.cls-1,.cls-3{stroke-miterlimit:10;}.cls-2{fill:#1a2b68;}.cls-3{fill:#3b3b3b;stroke:#3b3b3b;}</style></defs><title>FINAL_Do&amp;apos;s_and_Don&amp;apos;ts_icons</title><path class="cls-1" d="M20.87,95.34A64.23,64.23,0,0,1,2.49,69S27,23.69,70.89,25.67,137.15,69,137.15,69s-6.94,32.4-45.63,40.66"/><line class="cls-1" x1="31.34" y1="39.5" x2="70.9" y2="113.13"/><line class="cls-1" x1="17.1" y1="52.35" x2="45.58" y2="105.44"/><line class="cls-1" x1="3.37" y1="69.04" x2="19.71" y2="94.3"/><path class="cls-1" d="M81.73,91.83s24.46-14.45,10.51-43c-13-26.59-42.38-16.18-42.38-16.18Z"/><path class="cls-2" d="M85.17,89.26S103.3,70,93.53,50C84.45,31.34,59.74,42,59.74,42Z"/><path class="cls-3" d="M99.62,138.42,31.2,8.31S30.85,5,35.93,2.48s6.36,0,6.36,0l68.42,130.11a9.91,9.91,0,0,1-4.43,4.92A8.83,8.83,0,0,1,99.62,138.42Z"/></svg>