<svg id="Layer_1" data-name="Layer 1" xmlns="http://www.w3.org/2000/svg" viewBox="0 0 140 140"><defs><style>.cls-1{fill:#1a2b68;}.cls-2,.cls-3,.cls-4{fill:none;stroke-linecap:round;stroke-linejoin:round;}.cls-2{stroke:#1a2b68;stroke-width:12px;}.cls-3{stroke:#000;stroke-width:3px;}.cls-4{stroke:#fff;stroke-width:2.5px;}</style></defs><title>FINAL_Do&amp;apos;s_and_Don&amp;apos;ts_icons</title><circle class="cls-1" cx="61.98" cy="17.39" r="17.31"/><path class="cls-1" d="M63.18,38.14h0c-21.62,0-19.92,17.68-19.92,39.29V89.35c0,2.6,1.41,4.71,3.16,4.71H81.64c1.75,0,3.16-2.11,3.16-4.71V77.43C84.8,55.82,86.77,38.14,63.18,38.14Z"/><polyline class="cls-2" points="58.12 45.48 45.8 47.81 36.77 64.87 35.53 86.46"/><polyline class="cls-2" points="101.78 90.38 86.44 67.08 72.49 47.81"/><line class="cls-2" x1="50.44" y1="87.92" x2="53.37" y2="136.03"/><polyline class="cls-2" points="77.14 86.46 86.97 117.13 79.93 135.22"/><polyline class="cls-3" points="106.62 139.95 106.62 93.2 92.84 93.2"/><line class="cls-4" x1="70.54" y1="107.06" x2="92.84" y2="100.96"/></svg>