<svg id="Layer_1" data-name="Layer 1" xmlns="http://www.w3.org/2000/svg" viewBox="0 0 140 140"><defs><style>.cls-1{fill:#1a2b68;}.cls-2,.cls-3{fill:none;stroke-linecap:round;stroke-linejoin:round;}.cls-2{stroke:#1a2b68;stroke-width:12px;}.cls-3{stroke:#000;stroke-width:7px;}</style></defs><title>Tweaked_Do&amp;apos;s_and_Don&amp;apos;ts_icons</title><circle class="cls-1" cx="61.98" cy="17.39" r="17.31"/><path class="cls-1" d="M63.18,38.14h0c-21.62,0-19.92,17.68-19.92,39.29V89.35c0,2.6,1.41,4.71,3.16,4.71H81.64c1.75,0,3.16-2.11,3.16-4.71V77.43C84.8,55.82,86.77,38.14,63.18,38.14Z"/><polyline class="cls-2" points="58.6 44.51 48.16 45.48 36.77 64.87 35.53 86.46"/><line class="cls-2" x1="49.49" y1="87.53" x2="52.43" y2="134.63"/><polyline class="cls-3" points="106.62 136.95 106.62 93.2 98.84 93.2"/><path class="cls-1" d="M76.51,104.13,88.09,101,82.85,84.63A6,6,0,1,0,71.43,88.3Z"/><path class="cls-1" d="M88.85,103.34l-11.58,3.18,3.34,10.41L74.34,132a6,6,0,1,0,11.18,4.35l7-17.08a6,6,0,0,0,.12-4Z"/><polyline class="cls-2" points="101.78 90.38 86.44 67.08 72.49 47.81"/></svg>
