<?xml version="1.0" encoding="UTF-8" standalone="no"?>
<svg width="233px" height="233px" viewBox="0 0 233 233" version="1.1" xmlns="http://www.w3.org/2000/svg" xmlns:xlink="http://www.w3.org/1999/xlink">
    <!-- Generator: Sketch 47.1 (45422) - http://www.bohemiancoding.com/sketch -->
    <title>anxiety-icon-new</title>
    <desc>Created with Sketch.</desc>
    <defs></defs>
    <g id="Page-1" stroke="none" stroke-width="1" fill="none" fill-rule="evenodd">
        <g id="anxiety-icon-new" transform="translate(3.000000, -18.000000)">
            <g id="Group" transform="translate(116.500000, 134.500000) rotate(13.000000) translate(-116.500000, -134.500000) translate(24.000000, 18.000000)">
                <polyline id="Shape" stroke="#22B9D8" stroke-width="11" points="142.969129 12.0947266 71.7353448 128.49 114.221552 114.32 42.3961021 223.320495"></polyline>
                <polyline id="Shape" stroke="#CAD500" stroke-width="11" points="151.817466 17.4834313 91.7557471 114.61 130.020977 105.17 50.5153332 228.640625"></polyline>
                <polyline id="Shape" stroke="#CAD500" stroke-width="11" points="113.658461 5.7578125 20.2011494 164.048828 53.1455173 156.443022 13.9929175 216.157834"></polyline>
                <polyline id="Shape" stroke="#EB5B5D" stroke-width="11" points="166.947636 11.7007159 111.43592 100.56 151.774425 90.59 66.5401943 223.361247"></polyline>
                <polyline id="Shape" stroke="#EB5B5D" stroke-width="11" points="104.355857 0.307145573 0.627298851 178.001953 32.3596332 169.859375 5.63699307 210.702373"></polyline>
                <polyline id="Shape" stroke="#3E5D26" stroke-width="9" points="134.545934 6.90492744 53.0333333 140.25 91.603612 131.34535 34.2775602 217.932754"></polyline>
                <polyline id="Shape" stroke="#3E5D26" stroke-width="9" points="180.151721 19.8131193 144.002299 77.65 184.234483 69.33 81.8017917 232.99587"></polyline>
                <polyline id="Shape" stroke="#F49728" stroke-width="9" points="121.838277 10.5813885 38.5735632 150.8 72.3708494 144.377334 22.4160387 221.444187"></polyline>
                <polyline id="Shape" stroke="#006F7A" stroke-width="9" points="172.551312 15.1547852 127.256609 89.32 166.93592 81.4 74.4668193 228.370117"></polyline>
            </g>
        </g>
    </g>
</svg>