<svg id="Layer_1" data-name="Layer 1" xmlns="http://www.w3.org/2000/svg" viewBox="0 0 140 140"><defs><style>.cls-1{fill:#1a2b68;}.cls-2{fill:#cad500;}.cls-3{fill:#006f7a;}.cls-4{fill:#eb5b5d;}.cls-5{fill:#22b9d8;}.cls-6{fill:#f49728;}.cls-7{fill:none;}</style></defs><title>Anxiety_alt_Do&amp;apos;s_and_Don&amp;apos;ts_icons-73</title><polygon class="cls-1" points="70.09 69.86 70.09 69.86 88.94 33.88 103.28 41.76 122.49 0.59 95.43 0.63 95.1 30.19 79.61 21.75 70.09 69.86"/><polygon class="cls-2" points="70.13 69.97 70.13 69.97 102.83 87.11 95.68 100.15 138.85 115.47 138.45 93.51 106.2 92.7 113.86 78.63 70.13 69.97"/><polygon class="cls-3" points="70.13 69.97 70.13 69.97 68.68 105.91 54.27 102.23 55.42 140.16 70.04 139.9 64.09 110.56 79.64 114.48 70.13 69.97"/><polygon class="cls-2" points="70.13 69.97 70.13 69.97 34.88 80.98 30.72 68.7 -0.04 83.44 -0.04 99.36 28.55 81.4 33.08 94.77 70.13 69.97"/><polygon class="cls-4" points="70.13 69.97 70.13 69.97 44.37 43.52 55.22 33.34 19.19 2.05 1.96 17.72 42.91 37.15 31.25 48.15 70.13 69.97"/><polygon class="cls-5" points="69.56 69.69 69.56 69.69 63.78 52.54 56.92 55 62.41 21 69.56 20.45 61.33 50.48 68.73 47.86 69.56 69.69"/><polygon class="cls-6" points="69.95 69.69 69.95 69.69 98.76 59.99 94.63 48.46 132.94 46.47 133.86 58.48 102.22 55.87 106.63 68.3 69.95 69.69"/><polygon class="cls-4" points="70.74 70.68 70.74 70.68 81.79 85 87.48 80.44 93.63 97.37 87.05 100.21 84.78 86.15 78.64 91.05 70.74 70.68"/><polygon class="cls-5" points="69.56 70.68 69.56 70.68 59.3 85.58 65.39 89.6 34.56 114.76 26.54 105.48 59.13 88.78 52.59 84.43 69.56 70.68"/><polygon class="cls-1" points="69.56 69.69 69.56 69.69 51.54 68.05 51.02 75.32 0.53 53.41 0.39 38.17 48.67 69.46 49.25 61.63 69.56 69.69"/><polygon class="cls-7" points="99.27 13.29 99.22 13.28 91.58 -4.1 99.27 13.29"/><polygon class="cls-7" points="24.45 43.6 11.01 13.54 24.28 43.8 24.45 43.6"/></svg>