<svg id="Layer_1" data-name="Layer 1" xmlns="http://www.w3.org/2000/svg" viewBox="0 0 140 140"><defs><style>.cls-1{fill:#1a2b68;}.cls-2,.cls-3,.cls-4,.cls-5,.cls-6,.cls-7{fill:none;stroke-linecap:round;stroke-linejoin:round;}.cls-2{stroke:#1a2b68;stroke-width:12px;}.cls-3{stroke:#006f7a;}.cls-3,.cls-4,.cls-5,.cls-6,.cls-7{stroke-width:9px;}.cls-4{stroke:#eb5b5d;}.cls-5{stroke:#3e5d26;}.cls-6{stroke:#f49728;}.cls-7{stroke:#22b9d8;}</style></defs><title>Tweaked_Do&amp;apos;s_and_Don&amp;apos;ts_icons</title><circle class="cls-1" cx="66.59" cy="62.8" r="23.96"/><path class="cls-1" d="M37.75,81.35H33.12c-24.62,0-21.85,17.13-21.85,47.05v6.1c0,3.59,2.27,6.51,5.06,6.51h43.6c2.79,0,5.06-2.92,5.06-6.51v-6.1C65,98.48,65.64,81.35,37.75,81.35Z"/><polyline class="cls-2" points="50.51 90.51 83.49 122.66 102.26 70.55"/><line class="cls-3" x1="41.88" y1="15.28" x2="45.22" y2="21.5"/><line class="cls-4" x1="90.01" y1="24.62" x2="86.71" y2="30.86"/><polyline class="cls-5" points="11.88 26.52 22.89 44.09 30.95 29.9 41.21 40.14"/><polyline class="cls-6" points="101.47 43.53 111.08 37.51 104.25 26.51 125.19 15.63"/><polyline class="cls-7" points="67.36 5.73 60.89 16.18 72.29 17.87 68.81 27.05"/></svg>