<svg id="Layer_1" data-name="Layer 1" xmlns="http://www.w3.org/2000/svg" viewBox="0 0 140 140"><defs><style>.cls-1,.cls-3{fill:none;stroke-linecap:round;}.cls-1{stroke:#3b3b3b;stroke-miterlimit:10;stroke-width:6px;}.cls-2{fill:#1a2b68;}.cls-3{stroke:#1a2b68;stroke-linejoin:round;stroke-width:12px;}</style></defs><title>Tweaked_Do&amp;apos;s_and_Don&amp;apos;ts_icons</title><path class="cls-1" d="M113.83,50.44c3.65-.43,10.84-5.16,8.15-12.25a8.25,8.25,0,0,0-9.4-4.17c-5.7,1.43-10.76,5.27-11.74,13.11a11.58,11.58,0,0,0,7.32,12,16.7,16.7,0,0,0,14.23-1.7c3.72-2.55,7.34-5.77,9.46-10.33a17.78,17.78,0,0,0-.46-14.61c-2.16-3.91-6.49-6-10.5-6.7"/><path class="cls-1" d="M40.18,18c-1.1-1.74-2.83-2.29-5.52-1.4-1.94.64-2.6,3.14-2,5.08,1.83,5.69,7.93,7.48,11.2,6,4.28-1.93,5.65-4.19,6.56-9.39,1.19-6.78-3.34-8.9-6.29-10.36-3.32-1.64-7.4-.69-10.79.79"/><path class="cls-1" d="M9.82,38.41a12.24,12.24,0,0,0,1.94,9.27,8.11,8.11,0,0,0,8.6,3.06c3.09-1,6.38-4.2,5.24-8-.93-3.11-5.37-6.22-7.34-3.64"/><path class="cls-1" d="M82.6,7.11a11,11,0,0,0-5.37,6.64A7.32,7.32,0,0,0,80,21.51c2.46,1.59,6.58,2.07,8.58-.89,1.63-2.42,1.28-7.3-1.65-7.21"/><circle class="cls-2" cx="68.11" cy="58.11" r="22.81"/><path class="cls-2" d="M40.67,75.76H36.26c-23.44,0-20.8,23.31-20.8,51.78v5.81c0,3.42,2.16,6.2,4.82,6.2H61.77c2.66,0,4.82-2.78,4.82-6.2v-5.81C66.59,99.07,67.21,75.76,40.67,75.76Z"/><polyline class="cls-3" points="48.95 82.95 85.21 117.67 95.12 71.28"/></svg>