<svg id="Layer_1" data-name="Layer 1" xmlns="http://www.w3.org/2000/svg" viewBox="0 0 140 140"><defs><style>.cls-1,.cls-3{fill:none;stroke-linecap:round;}.cls-1{stroke:#3b3b3b;stroke-miterlimit:10;stroke-width:4px;}.cls-2{fill:#1a2b68;}.cls-3{stroke:#1a2b68;stroke-linejoin:round;stroke-width:12px;}</style></defs><title>FINAL_Do&amp;apos;s_and_Don&amp;apos;ts_icons</title><path class="cls-1" d="M117.68,48c3.64-.42,10.83-5.15,8.14-12.25-.77-2-4.5-5.39-9.39-4.17-5.7,1.43-10.76,5.28-11.74,13.12a11.58,11.58,0,0,0,7.32,12A16.71,16.71,0,0,0,126.24,55c3.71-2.55,7.33-5.77,9.46-10.32a17.84,17.84,0,0,0-.47-14.62c-2.16-3.91-6.49-6-10.49-6.7"/><path class="cls-1" d="M47.21,19.29C46,17.36,43,15.5,40,16.49c-2.16.71-4.37,4.43-3.68,6.59,2,6.32,9.47,6.53,11.92,5,3-1.87,5.09-6.62,5.25-9.5.24-4.21-1.89-7.1-5.71-8.66s-8.22-.77-12,.88"/><path class="cls-1" d="M9.82,38.41a12.24,12.24,0,0,0,1.94,9.27,8.11,8.11,0,0,0,8.6,3.06c3.09-1,5.15-4.75,3.88-7.73s-6-3.89-7.95-1.32"/><path class="cls-1" d="M79.87,12.63a10.92,10.92,0,0,1,4,7.53,7.27,7.27,0,0,1-4.19,7.06c-2.71,1.08-6.3-.33-7.13-3.13s1.91-6.13,4.75-5.48"/><circle class="cls-2" cx="57.79" cy="60.16" r="20.69"/><path class="cls-2" d="M30.24,78.65h0c-32.58,0-29.87,21.14-29.87,47v9.26c0,3.11,2,5.63,4.37,5.63H53.38c2.41,0,4.37-2.52,4.37-5.63v-9.26C57.75,99.79,60.1,78.65,30.24,78.65Z"/><polyline class="cls-3" points="48.15 91.67 74.64 111.45 87.83 76.41"/></svg>