<svg id="Layer_1" data-name="Layer 1" xmlns="http://www.w3.org/2000/svg" viewBox="0 0 140 140"><defs><style>.cls-1{fill:#3b3b3b;}.cls-2{fill:none;stroke:#1a2b68;stroke-linecap:round;stroke-miterlimit:10;stroke-width:7px;}</style></defs><title>Deaf-icon</title><path class="cls-1" d="M61.84,66.75l-33.14,62a10,10,0,0,0,4.45,4.94,8.88,8.88,0,0,0,6.69.92L73,72.57Z"/><path class="cls-1" d="M102.84,2c-5.1-2.56-6.39,0-6.39,0L88.61,16.68,99.77,22.5l7.82-14.63S107.94,4.57,102.84,2Z"/><path class="cls-2" d="M95.84,67.88s3.78-31.56-25-31.63C44.2,36.19,43.16,66.47,43.16,66.47"/><path class="cls-2" d="M28.43,66.44s-.59-44.08,42.63-44.08c40.31,0,43.61,44.5,36.54,57.38C99,95.38,87.15,96.32,85.71,102.49c-1.16,5,1.74,37-25.39,34.49"/></svg>