<svg id="Layer_1" data-name="Layer 1" xmlns="http://www.w3.org/2000/svg" xmlns:xlink="http://www.w3.org/1999/xlink" viewBox="0 0 140 140"><defs><style>.cls-1,.cls-8{fill:#eb5b5d;}.cls-10,.cls-2{fill:#cad500;}.cls-12,.cls-3{fill:#22b9d8;}.cls-14,.cls-4{fill:#1a2b68;}.cls-16,.cls-5{fill:#f49728;}.cls-18,.cls-6{fill:#006f7a;}.cls-7{clip-path:url(#clip-path);}.cls-10,.cls-12,.cls-14,.cls-16,.cls-18,.cls-8{opacity:0.25;}.cls-9{clip-path:url(#clip-path-2);}.cls-11{clip-path:url(#clip-path-3);}.cls-13{clip-path:url(#clip-path-4);}.cls-15{clip-path:url(#clip-path-5);}.cls-17{clip-path:url(#clip-path-6);}</style><clipPath id="clip-path"><path class="cls-1" d="M3.18,53.18A35.05,35.05,0,1,0,38.23,18.39a34.92,34.92,0,0,0-35,34.79"/></clipPath><clipPath id="clip-path-2"><path class="cls-2" d="M35.35,35.17A35,35,0,1,0,70.39.39a34.92,34.92,0,0,0-35,34.78"/></clipPath><clipPath id="clip-path-3"><path class="cls-3" d="M67.51,53.18a35,35,0,1,0,35-34.79,34.91,34.91,0,0,0-35,34.79"/></clipPath><clipPath id="clip-path-4"><path class="cls-4" d="M69.51,90a35,35,0,1,0,35-34.78A34.92,34.92,0,0,0,69.51,90"/></clipPath><clipPath id="clip-path-5"><path class="cls-5" d="M35.35,105.56a35,35,0,1,0,35-34.78,34.92,34.92,0,0,0-35,34.78"/></clipPath><clipPath id="clip-path-6"><path class="cls-6" d="M1.18,90A35.05,35.05,0,1,0,36.23,55.23,34.93,34.93,0,0,0,1.18,90"/></clipPath></defs><title>FINAL_Do&amp;apos;s_and_Don&amp;apos;ts_icons</title><path class="cls-1" d="M3.18,53.18A35.05,35.05,0,1,0,38.23,18.39a34.92,34.92,0,0,0-35,34.79"/><g class="cls-7"><rect class="cls-8" x="0.87" y="16.08" width="74.71" height="74.19"/></g><path class="cls-2" d="M35.35,35.17A35,35,0,1,0,70.39.39a34.92,34.92,0,0,0-35,34.78"/><g class="cls-9"><rect class="cls-10" x="33.04" y="-1.92" width="74.71" height="74.19"/></g><path class="cls-3" d="M67.51,53.18a35,35,0,1,0,35-34.79,34.91,34.91,0,0,0-35,34.79"/><g class="cls-11"><rect class="cls-12" x="65.2" y="16.08" width="74.71" height="74.19"/></g><path class="cls-4" d="M69.51,90a35,35,0,1,0,35-34.78A34.92,34.92,0,0,0,69.51,90"/><g class="cls-13"><rect class="cls-14" x="67.2" y="52.92" width="74.71" height="74.19"/></g><path class="cls-5" d="M35.35,105.56a35,35,0,1,0,35-34.78,34.92,34.92,0,0,0-35,34.78"/><g class="cls-15"><rect class="cls-16" x="33.04" y="68.47" width="74.71" height="74.19"/></g><path class="cls-6" d="M1.18,90A35.05,35.05,0,1,0,36.23,55.23,34.93,34.93,0,0,0,1.18,90"/><g class="cls-17"><rect class="cls-18" x="-1.13" y="52.92" width="74.71" height="74.19"/></g></svg>